<?xml version="1.0" encoding="utf-8"?>
<!-- Generator: Adobe Illustrator 16.0.4, SVG Export Plug-In . SVG Version: 6.00 Build 0)  -->
<!DOCTYPE svg PUBLIC "-//W3C//DTD SVG 1.1//EN" "http://www.w3.org/Graphics/SVG/1.1/DTD/svg11.dtd">
<svg version="1.1" id="Ebene_1" xmlns="http://www.w3.org/2000/svg" xmlns:xlink="http://www.w3.org/1999/xlink" x="0px" y="0px"
	 width="29px" height="43.994px" viewBox="0 0 29 43.994" enable-background="new 0 0 29 43.994" xml:space="preserve">
<line fill="none" stroke="#606060" stroke-miterlimit="10" x1="8" y1="15.497" x2="8" y2="35.497"/>
<line fill="none" stroke="#606060" stroke-miterlimit="10" x1="8" y1="35.497" x2="8" y2="37.497"/>
<line fill="none" stroke="#606060" stroke-miterlimit="10" x1="10" y1="35.497" x2="10" y2="37.497"/>
<line fill="none" stroke="#606060" stroke-miterlimit="10" x1="12" y1="35.497" x2="12" y2="37.497"/>
<line fill="none" stroke="#606060" stroke-miterlimit="10" x1="14" y1="35.497" x2="14" y2="37.497"/>
<line fill="none" stroke="#606060" stroke-miterlimit="10" x1="16" y1="35.497" x2="16" y2="37.497"/>
<line fill="none" stroke="#606060" stroke-miterlimit="10" x1="20" y1="37.497" x2="20" y2="35.497"/>
<line fill="none" stroke="#606060" stroke-miterlimit="10" x1="22" y1="37.497" x2="22" y2="35.497"/>
<line fill="none" stroke="#606060" stroke-miterlimit="10" x1="18" y1="37.497" x2="18" y2="35.497"/>
<line fill="none" stroke="#606060" stroke-miterlimit="10" x1="8" y1="12.497" x2="8" y2="14.497"/>
<line fill="none" stroke="#606060" stroke-miterlimit="10" x1="10" y1="12.497" x2="10" y2="14.497"/>
<line fill="none" stroke="#606060" stroke-miterlimit="10" x1="12" y1="12.497" x2="12" y2="14.497"/>
<line fill="none" stroke="#606060" stroke-miterlimit="10" x1="14" y1="12.497" x2="14" y2="14.497"/>
<line fill="none" stroke="#606060" stroke-miterlimit="10" x1="16" y1="12.497" x2="16" y2="14.497"/>
<line fill="none" stroke="#606060" stroke-miterlimit="10" x1="20" y1="14.497" x2="20" y2="12.497"/>
<line fill="none" stroke="#606060" stroke-miterlimit="10" x1="22" y1="14.497" x2="22" y2="12.497"/>
<line fill="none" stroke="#606060" stroke-miterlimit="10" x1="18" y1="14.497" x2="18" y2="12.497"/>
<line fill="none" stroke="#606060" stroke-miterlimit="10" x1="7.5" y1="14.997" x2="22.5" y2="14.997"/>
<line fill="none" stroke="#606060" stroke-miterlimit="10" x1="7.5" y1="34.997" x2="22.5" y2="34.997"/>
<line fill="none" stroke="#606060" stroke-miterlimit="10" x1="22" y1="14.497" x2="22" y2="35.497"/>
</svg>
